<svg width="40" height="40" viewBox="0 0 40 40" fill="none" xmlns="http://www.w3.org/2000/svg">
<path d="M5 6.00003H14C15.5913 6.00003 17.1174 6.65558 18.2426 7.82248C19.3679 8.98937 20 10.572 20 12.2223V34C20 32.7624 19.5259 31.5754 18.682 30.7002C17.8381 29.825 16.6935 29.3334 15.5 29.3334H5V6.00003Z" stroke="white" stroke-width="3" stroke-linecap="round" stroke-linejoin="round"/>
<path d="M35 6.00003H26C24.4087 6.00003 22.8826 6.65558 21.7574 7.82248C20.6321 8.98937 20 10.572 20 12.2223V34C20 32.7624 20.4741 31.5754 21.318 30.7002C22.1619 29.825 23.3065 29.3334 24.5 29.3334H35V6.00003Z" stroke="white" stroke-width="3" stroke-linecap="round" stroke-linejoin="round"/>
</svg>
